<svg width="120" height="120" viewBox="0 0 120 120" fill="none" xmlns="http://www.w3.org/2000/svg">
<rect width="120" height="120" rx="60" fill="#5071D0"/>
<path d="M66.9124 49.0582L33.9157 31L25 31.1201L31.1053 38.0403C31.1309 38.0694 31.1645 38.0904 31.2019 38.1007L33.3133 38.6853L27.6506 40.0062L33.1434 44.7668C33.1755 44.7945 33.2156 44.8114 33.2579 44.8149L36.0843 45.0497L30.1807 47.6915L36.1615 50.7912C36.19 50.806 36.2215 50.8137 36.2536 50.8137H39.4578L34.6386 53.4555L40.7274 55.7164C40.7638 55.7299 40.8033 55.7325 40.8412 55.7239L43.4337 55.1366L39.2169 58.8592L45.9375 58.9788C45.955 58.9791 45.9725 58.9772 45.9894 58.9729L47.4096 58.619L45 61.7412L49.9859 62.0962C50.0339 62.0996 50.0814 62.0856 50.1199 62.0569L51.0241 61.381H51.2651L49.3373 64.2629L53.4337 64.0228L55.241 62.8219L54.1566 66.3043L58.7349 64.1429L56.5663 75.5507L55 84.5569L57.7711 89L59.9129 85.5608C59.9305 85.5324 59.9408 85.5001 59.9428 85.4668L60.0602 83.4762L62.8313 86.5983L63.7863 83.505C63.7922 83.4859 63.7952 83.466 63.7952 83.446V81.0745L66.6867 83.236L66.8072 78.3126L69.4578 79.8737V76.3526C69.4578 76.2987 69.4491 76.2452 69.432 76.194L69.0964 75.1905L71.506 76.2712L71.2706 73.1032C71.267 73.0553 71.2463 73.0103 71.2123 72.9764L67.158 68.9355C67.1045 68.8822 67.1201 68.7921 67.1883 68.7598L69.9329 67.4616C72.6287 66.1865 74.6796 63.8565 75.6024 61.0207L76.1943 59.0955C77.3135 55.4558 79.1812 52.0902 81.6777 49.2149L82.1921 48.6225C82.9381 47.7633 83.7566 46.9697 84.6386 46.2505L95 39.0455L86.2644 42.3105C83.7646 43.2449 81.0916 43.6251 78.4304 43.4249C76.8821 43.3085 75.3186 43.486 73.8882 44.0897C73.0021 44.4637 72.0144 44.928 71.2651 45.4099C69.6713 46.435 67.6387 48.5157 67.1549 49.0204C67.0918 49.0862 66.9923 49.1019 66.9124 49.0582Z" fill="white"/>
</svg>
