<?xml version="1.0" standalone="no"?>
<!DOCTYPE svg PUBLIC "-//W3C//DTD SVG 20010904//EN"
 "http://www.w3.org/TR/2001/REC-SVG-20010904/DTD/svg10.dtd">
<svg version="1.0" xmlns="http://www.w3.org/2000/svg"
 width="153.000000pt" height="153.000000pt" viewBox="0 0 153.000000 153.000000"
 preserveAspectRatio="xMidYMid meet">
<metadata>
Created by potrace 1.14, written by Peter Selinger 2001-2017
</metadata>
<g transform="translate(0.000000,153.000000) scale(0.100000,-0.100000)"
fill="#000000" stroke="none">
<path d="M96 1338 c10 -12 24 -27 29 -33 6 -7 24 -28 41 -47 17 -20 42 -39 55
-43 l24 -8 -23 -8 c-12 -5 -33 -10 -47 -12 -13 -1 -27 -5 -30 -9 -3 -3 18 -26
47 -52 36 -32 61 -46 83 -47 27 -1 25 -3 -27 -26 -32 -15 -58 -29 -58 -32 1
-13 119 -61 151 -62 l34 0 -47 -22 c-27 -12 -48 -25 -48 -28 0 -12 120 -51
140 -46 30 8 24 -5 -15 -32 -19 -13 -33 -27 -30 -30 2 -4 37 -7 78 -7 l74 1
-15 -22 c-8 -13 -19 -23 -26 -24 -6 0 2 -4 17 -9 15 -5 46 -7 68 -6 36 3 38 2
26 -13 -31 -36 -30 -41 15 -35 24 3 47 10 53 15 17 17 24 9 14 -17 -5 -15 -8
-29 -5 -31 2 -2 23 5 46 16 l41 20 -6 -46 c-3 -26 -8 -49 -9 -52 -2 -3 -7 -28
-10 -55 -4 -27 -13 -76 -21 -108 -7 -32 -14 -62 -14 -66 0 -4 -3 -26 -7 -49
-5 -33 -1 -50 17 -82 12 -23 25 -41 29 -41 3 0 14 15 25 32 20 33 21 37 24 61
1 6 11 0 22 -15 11 -16 25 -28 29 -28 10 0 26 67 21 88 -2 10 2 11 18 3 11 -6
23 -16 26 -21 14 -23 21 -7 18 41 l-4 50 32 -16 31 -17 -3 45 c-4 44 -3 45 22
40 24 -4 25 -3 21 25 -2 18 -21 47 -48 73 l-44 44 71 35 c80 39 76 33 124 191
21 68 35 96 71 134 24 27 44 50 44 53 0 7 49 44 154 116 111 75 109 76 -49 17
-100 -37 -116 -41 -173 -35 -37 4 -67 2 -75 -4 -6 -6 -16 -11 -22 -11 -15 -1
-98 -57 -119 -80 l-19 -20 -71 37 c-39 20 -72 40 -74 45 -2 4 -8 7 -12 7 -5 0
-53 24 -107 53 -108 59 -224 122 -323 175 -36 19 -69 38 -74 43 -6 5 -53 9
-105 9 l-94 0 19 -22z"/>
</g>
</svg>
