<svg width="30" height="30" viewBox="0 0 30 30" fill="none" xmlns="http://www.w3.org/2000/svg">
<path d="M22.6802 11.8046L22.4382 11.8676L22.4383 11.8678L22.6802 11.8046ZM21.327 10.4154L21.2607 10.6564L21.2609 10.6564L21.327 10.4154ZM23 15.587H22.75H23ZM22.6802 19.3693L22.4383 19.3061L22.4382 19.3063L22.6802 19.3693ZM21.327 20.7586L21.2609 20.5176L21.2607 20.5176L21.327 20.7586ZM15.3478 21.087V20.837V21.087ZM9.36852 20.7586L9.43483 20.5176L9.43471 20.5176L9.36852 20.7586ZM8.01539 19.3693L8.25733 19.3063L8.25729 19.3062L8.01539 19.3693ZM8.01539 11.8046L8.25729 11.8678L8.25733 11.8676L8.01539 11.8046ZM9.36852 10.4154L9.43468 10.6564L9.43485 10.6564L9.36852 10.4154ZM13.913 18.2175H13.663V18.6685L14.0455 18.4295L13.913 18.2175ZM13.913 13.4349L14.0455 13.2229L13.663 12.9838V13.4349H13.913ZM17.7391 15.8263L17.8716 16.0383L18.2108 15.8263L17.8716 15.6143L17.7391 15.8263ZM1.25 15.3478C1.25 7.56181 7.56181 1.25 15.3478 1.25V0.75C7.28567 0.75 0.75 7.28567 0.75 15.3478H1.25ZM15.3478 29.4457C7.56181 29.4457 1.25 23.1338 1.25 15.3478H0.75C0.75 23.41 7.28567 29.9457 15.3478 29.9457V29.4457ZM29.4457 15.3478C29.4457 23.1338 23.1338 29.4457 15.3478 29.4457V29.9457C23.41 29.9457 29.9457 23.41 29.9457 15.3478H29.4457ZM15.3478 1.25C23.1338 1.25 29.4457 7.56181 29.4457 15.3478H29.9457C29.9457 7.28567 23.41 0.75 15.3478 0.75V1.25ZM22.9221 11.7417C22.7242 10.9815 22.1404 10.3793 21.3932 10.1743L21.2609 10.6564C21.8307 10.8128 22.2841 11.2755 22.4382 11.8676L22.9221 11.7417ZM23 15.587C23.25 15.587 23.25 15.5869 23.25 15.5869C23.25 15.5869 23.25 15.5868 23.25 15.5868C23.25 15.5867 23.25 15.5865 23.25 15.5864C23.25 15.586 23.25 15.5855 23.25 15.5849C23.25 15.5835 23.25 15.5816 23.25 15.5791C23.25 15.574 23.25 15.5666 23.2499 15.5569C23.2498 15.5375 23.2497 15.5091 23.2494 15.4725C23.2487 15.3994 23.2475 15.2939 23.245 15.1635C23.2399 14.9028 23.2299 14.5422 23.2097 14.1427C23.1698 13.3512 23.0892 12.382 22.9221 11.7415L22.4383 11.8678C22.5909 12.4527 22.6703 13.3747 22.7103 14.1679C22.7302 14.5609 22.7401 14.9161 22.745 15.1731C22.7475 15.3016 22.7488 15.4053 22.7494 15.4769C22.7497 15.5126 22.7498 15.5403 22.7499 15.559C22.75 15.5683 22.75 15.5754 22.75 15.5801C22.75 15.5824 22.75 15.5842 22.75 15.5853C22.75 15.5859 22.75 15.5863 22.75 15.5866C22.75 15.5867 22.75 15.5868 22.75 15.5869C22.75 15.5869 22.75 15.5869 22.75 15.587C22.75 15.587 22.75 15.587 23 15.587ZM22.9221 19.4324C23.0892 18.7919 23.1698 17.8227 23.2097 17.0311C23.2299 16.6317 23.2399 16.2711 23.245 16.0104C23.2475 15.88 23.2487 15.7745 23.2494 15.7014C23.2497 15.6648 23.2498 15.6364 23.2499 15.617C23.25 15.6073 23.25 15.5999 23.25 15.5948C23.25 15.5923 23.25 15.5904 23.25 15.5891C23.25 15.5884 23.25 15.5879 23.25 15.5875C23.25 15.5874 23.25 15.5872 23.25 15.5871C23.25 15.5871 23.25 15.587 23.25 15.587C23.25 15.587 23.25 15.587 23 15.587C22.75 15.587 22.75 15.587 22.75 15.587C22.75 15.587 22.75 15.587 22.75 15.587C22.75 15.5871 22.75 15.5872 22.75 15.5873C22.75 15.5876 22.75 15.588 22.75 15.5886C22.75 15.5897 22.75 15.5915 22.75 15.5938C22.75 15.5985 22.75 15.6056 22.7499 15.6149C22.7498 15.6336 22.7497 15.6613 22.7494 15.6971C22.7488 15.7686 22.7475 15.8723 22.745 16.0008C22.7401 16.2578 22.7302 16.613 22.7103 17.0059C22.6703 17.7992 22.5909 18.7211 22.4383 19.3061L22.9221 19.4324ZM21.3932 20.9997C22.1404 20.7946 22.7242 20.1925 22.9221 19.4322L22.4382 19.3063C22.2841 19.8984 21.8307 20.3611 21.2609 20.5176L21.3932 20.9997ZM15.3478 21.087C15.3478 21.337 15.3479 21.337 15.3479 21.337C15.3479 21.337 15.348 21.337 15.3481 21.337C15.3482 21.337 15.3485 21.337 15.3488 21.337C15.3494 21.337 15.3503 21.337 15.3514 21.337C15.3538 21.337 15.3573 21.3369 15.3619 21.3369C15.3711 21.3369 15.3847 21.3369 15.4024 21.3369C15.438 21.3368 15.4902 21.3366 15.557 21.3363C15.6906 21.3357 15.8828 21.3344 16.117 21.3318C16.5854 21.3267 17.2226 21.3164 17.8975 21.2958C18.572 21.2752 19.2863 21.2443 19.908 21.1978C20.5225 21.1517 21.0684 21.0891 21.3934 20.9997L21.2607 20.5176C20.989 20.5924 20.4891 20.6528 19.8707 20.6991C19.2594 20.7449 18.5534 20.7756 17.8823 20.796C17.2116 20.8165 16.5778 20.8267 16.1115 20.8318C15.8784 20.8344 15.6873 20.8357 15.5546 20.8363C15.4882 20.8366 15.4364 20.8368 15.4013 20.8369C15.3837 20.8369 15.3703 20.8369 15.3613 20.8369C15.3568 20.8369 15.3534 20.837 15.3512 20.837C15.35 20.837 15.3492 20.837 15.3486 20.837C15.3484 20.837 15.3481 20.837 15.348 20.837C15.3479 20.837 15.3479 20.837 15.3479 20.837C15.3478 20.837 15.3478 20.837 15.3478 21.087ZM9.30221 20.9997C9.62716 21.0891 10.1731 21.1517 10.7876 21.1978C11.4094 21.2443 12.1236 21.2752 12.7981 21.2958C13.473 21.3164 14.1103 21.3267 14.5786 21.3318C14.8129 21.3344 15.005 21.3357 15.1387 21.3363C15.2055 21.3366 15.2577 21.3368 15.2932 21.3369C15.311 21.3369 15.3246 21.3369 15.3338 21.3369C15.3384 21.3369 15.3419 21.337 15.3442 21.337C15.3454 21.337 15.3463 21.337 15.3469 21.337C15.3472 21.337 15.3474 21.337 15.3476 21.337C15.3477 21.337 15.3477 21.337 15.3478 21.337C15.3478 21.337 15.3478 21.337 15.3478 21.087C15.3478 20.837 15.3478 20.837 15.3478 20.837C15.3478 20.837 15.3477 20.837 15.3476 20.837C15.3475 20.837 15.3473 20.837 15.347 20.837C15.3465 20.837 15.3456 20.837 15.3445 20.837C15.3422 20.837 15.3388 20.8369 15.3343 20.8369C15.3253 20.8369 15.3119 20.8369 15.2944 20.8369C15.2592 20.8368 15.2074 20.8366 15.1411 20.8363C15.0083 20.8357 14.8172 20.8344 14.5841 20.8318C14.1179 20.8267 13.4841 20.8165 12.8133 20.796C12.1422 20.7756 11.4362 20.7449 10.825 20.6991C10.2065 20.6528 9.70662 20.5924 9.43483 20.5176L9.30221 20.9997ZM7.77345 19.4322C7.97134 20.1925 8.55518 20.7946 9.30233 20.9997L9.43471 20.5176C8.86482 20.3611 8.41145 19.8984 8.25733 19.3063L7.77345 19.4322ZM7.69565 15.587C7.44565 15.587 7.44565 15.587 7.44565 15.587C7.44565 15.587 7.44565 15.5871 7.44565 15.5871C7.44565 15.5872 7.44565 15.5874 7.44565 15.5875C7.44565 15.5879 7.44565 15.5884 7.44565 15.5891C7.44565 15.5904 7.44566 15.5923 7.44566 15.5948C7.44567 15.5999 7.44569 15.6073 7.44573 15.617C7.44581 15.6364 7.44597 15.6648 7.44629 15.7014C7.44692 15.7745 7.44818 15.88 7.45069 16.0104C7.45573 16.2711 7.46579 16.6317 7.48594 17.0311C7.52586 17.8227 7.60638 18.7919 7.77349 19.4324L8.25729 19.3062C8.10467 18.7212 8.02531 17.7992 7.9853 17.0059C7.96548 16.613 7.95556 16.2578 7.9506 16.0008C7.94812 15.8723 7.94688 15.7686 7.94627 15.6971C7.94596 15.6613 7.9458 15.6336 7.94573 15.6149C7.94569 15.6056 7.94567 15.5985 7.94566 15.5938C7.94566 15.5915 7.94565 15.5897 7.94565 15.5886C7.94565 15.588 7.94565 15.5876 7.94565 15.5873C7.94565 15.5872 7.94565 15.5871 7.94565 15.587C7.94565 15.587 7.94565 15.587 7.94565 15.587C7.94565 15.587 7.94565 15.587 7.69565 15.587ZM7.77349 11.7415C7.60638 12.382 7.52586 13.3512 7.48594 14.1427C7.46579 14.5422 7.45573 14.9028 7.45069 15.1635C7.44818 15.2939 7.44692 15.3994 7.44629 15.4725C7.44597 15.5091 7.44581 15.5375 7.44573 15.5569C7.44569 15.5666 7.44567 15.574 7.44566 15.5791C7.44566 15.5816 7.44565 15.5835 7.44565 15.5849C7.44565 15.5855 7.44565 15.586 7.44565 15.5864C7.44565 15.5865 7.44565 15.5867 7.44565 15.5868C7.44565 15.5868 7.44565 15.5869 7.44565 15.5869C7.44565 15.5869 7.44565 15.587 7.69565 15.587C7.94565 15.587 7.94565 15.587 7.94565 15.587C7.94565 15.5869 7.94565 15.5869 7.94565 15.5869C7.94565 15.5868 7.94565 15.5867 7.94565 15.5866C7.94565 15.5863 7.94565 15.5859 7.94565 15.5853C7.94565 15.5842 7.94566 15.5824 7.94566 15.5801C7.94567 15.5754 7.94569 15.5683 7.94573 15.559C7.9458 15.5403 7.94596 15.5126 7.94627 15.4769C7.94688 15.4053 7.94812 15.3016 7.9506 15.1731C7.95556 14.9161 7.96548 14.5609 7.9853 14.1679C8.02531 13.3747 8.10467 12.4527 8.25729 11.8678L7.77349 11.7415ZM9.30237 10.1743C8.55518 10.3793 7.97133 10.9815 7.77345 11.7417L8.25733 11.8676C8.41145 11.2755 8.86482 10.8128 9.43468 10.6564L9.30237 10.1743ZM15.3478 10.087C15.3478 9.83696 15.3478 9.83696 15.3478 9.83696C15.3477 9.83696 15.3477 9.83696 15.3476 9.83696C15.3474 9.83696 15.3472 9.83696 15.3469 9.83696C15.3463 9.83696 15.3454 9.83696 15.3442 9.83696C15.3419 9.83696 15.3384 9.83696 15.3338 9.83697C15.3246 9.83698 15.311 9.837 15.2932 9.83704C15.2577 9.83712 15.2055 9.83728 15.1386 9.8376C15.005 9.83824 14.8129 9.83953 14.5786 9.8421C14.1103 9.84725 13.473 9.85753 12.7981 9.87812C12.1236 9.8987 11.4094 9.92963 10.7876 9.9762C10.1731 10.0222 9.62715 10.0849 9.3022 10.1743L9.43485 10.6564C9.70663 10.5816 10.2065 10.5211 10.825 10.4748C11.4362 10.429 12.1422 10.3984 12.8134 10.3779C13.4841 10.3574 14.1179 10.3472 14.5841 10.3421C14.8172 10.3395 15.0083 10.3382 15.1411 10.3376C15.2074 10.3373 15.2592 10.3371 15.2944 10.337C15.3119 10.337 15.3253 10.337 15.3343 10.337C15.3388 10.337 15.3422 10.337 15.3445 10.337C15.3456 10.337 15.3465 10.337 15.347 10.337C15.3473 10.337 15.3475 10.337 15.3476 10.337C15.3477 10.337 15.3478 10.337 15.3478 10.337C15.3478 10.337 15.3478 10.337 15.3478 10.087ZM21.3934 10.1743C21.0684 10.0849 20.5225 10.0222 19.908 9.9762C19.2863 9.92963 18.5721 9.8987 17.8975 9.87812C17.2226 9.85753 16.5854 9.84725 16.117 9.8421C15.8828 9.83953 15.6906 9.83824 15.557 9.8376C15.4902 9.83728 15.438 9.83712 15.4024 9.83704C15.3847 9.837 15.3711 9.83698 15.3619 9.83697C15.3573 9.83696 15.3538 9.83696 15.3514 9.83696C15.3503 9.83696 15.3494 9.83696 15.3488 9.83696C15.3485 9.83696 15.3482 9.83696 15.3481 9.83696C15.348 9.83696 15.3479 9.83696 15.3479 9.83696C15.3479 9.83696 15.3478 9.83696 15.3478 10.087C15.3478 10.337 15.3478 10.337 15.3479 10.337C15.3479 10.337 15.3479 10.337 15.348 10.337C15.3481 10.337 15.3484 10.337 15.3486 10.337C15.3492 10.337 15.35 10.337 15.3512 10.337C15.3534 10.337 15.3568 10.337 15.3613 10.337C15.3703 10.337 15.3837 10.337 15.4013 10.337C15.4364 10.3371 15.4882 10.3373 15.5546 10.3376C15.6873 10.3382 15.8784 10.3395 16.1115 10.3421C16.5778 10.3472 17.2116 10.3574 17.8823 10.3779C18.5534 10.3984 19.2594 10.429 19.8707 10.4748C20.4891 10.5211 20.989 10.5816 21.2607 10.6564L21.3934 10.1743ZM14.163 18.2175V13.4349H13.663V18.2175H14.163ZM17.6066 15.6143L13.7805 18.0055L14.0455 18.4295L17.8716 16.0383L17.6066 15.6143ZM13.7805 13.6469L17.6066 16.0382L17.8716 15.6143L14.0455 13.2229L13.7805 13.6469Z" fill="white"/>
</svg>
