<svg width="31" height="31" viewBox="0 0 31 31" fill="none" xmlns="http://www.w3.org/2000/svg">
<path fill-rule="evenodd" clip-rule="evenodd" d="M15.25 0.5C7.1038 0.5 0.5 7.1038 0.5 15.25C0.5 23.3962 7.1038 30 15.25 30C23.3962 30 30 23.3962 30 15.25C30 7.1038 23.3962 0.5 15.25 0.5ZM0 15.25C0 6.82766 6.82766 0 15.25 0C23.6723 0 30.5 6.82766 30.5 15.25C30.5 23.6723 23.6723 30.5 15.25 30.5C6.82766 30.5 0 23.6723 0 15.25ZM8.38085 19.1435L7.40343 22.6928L7.25 23.25L7.809 23.1034L11.4678 22.1435C12.633 22.7747 13.9434 23.1093 15.2767 23.1093H15.2806C19.6741 23.1093 23.25 19.5542 23.25 15.1816C23.2538 13.0637 22.4248 11.0713 20.9195 9.57319C19.4181 8.0751 17.4162 7.25 15.2844 7.25C10.8947 7.25 7.31877 10.8051 7.31877 15.1778C7.31495 16.5732 7.68171 17.9382 8.38085 19.1435ZM7.96243 22.5462L11.3409 21.6599L11.5321 21.6097L11.7059 21.7039C12.7983 22.2956 14.0269 22.6093 15.2767 22.6093H15.2806C19.4005 22.6093 22.75 19.2755 22.75 15.1816V15.1807C22.7536 13.1968 21.9781 11.3321 20.5668 9.92759L20.5664 9.92714C19.1592 8.52314 17.2846 7.75 15.2844 7.75C11.1684 7.75 7.81877 11.0837 7.81877 15.1778V15.1791C7.81519 16.4857 8.15851 17.7637 8.81336 18.8927L8.91859 19.0741L8.8629 19.2763L7.96243 22.5462ZM12.8207 11.8122C12.8104 11.7874 12.8012 11.7679 12.7934 11.7528C12.6971 11.7501 12.5849 11.75 12.4627 11.75C12.4628 11.75 12.4614 11.75 12.4589 11.7503C12.4563 11.7505 12.4529 11.751 12.4486 11.7518C12.4401 11.7535 12.4291 11.7566 12.4165 11.7621C12.3929 11.7722 12.3573 11.7932 12.3173 11.8399C12.3061 11.853 12.2939 11.867 12.2809 11.8818C12.0949 12.0945 11.75 12.4889 11.75 13.2857C11.75 13.7021 11.8937 14.138 12.0677 14.507C12.2342 14.86 12.4114 15.1166 12.4625 15.1907L12.4664 15.1963C12.4791 15.2148 12.4989 15.2463 12.5258 15.289C12.6539 15.4929 12.9436 15.9538 13.4033 16.4917C13.9584 17.1411 14.7147 17.8418 15.6129 18.2242L15.613 18.2243C16.4275 18.5714 16.8821 18.6939 17.1572 18.7333C17.359 18.7622 17.4587 18.7494 17.5961 18.7317C17.6357 18.7266 17.6783 18.7211 17.7274 18.7161L17.7285 18.716L17.7316 18.7155C17.7344 18.715 17.7383 18.7143 17.7434 18.7132C17.7536 18.7109 17.7672 18.7074 17.784 18.7022C17.8181 18.6917 17.8605 18.6758 17.9096 18.6538C18.0082 18.6096 18.1206 18.5468 18.2297 18.4708C18.469 18.3042 18.6017 18.1393 18.6334 18.0463C18.7017 17.8371 18.7345 17.6468 18.7456 17.5069C18.746 17.501 18.7465 17.4952 18.7468 17.4896C18.7475 17.4795 18.7481 17.4698 18.7485 17.4606L18.7476 17.4601L18.7233 17.4475C18.6894 17.4299 18.6488 17.4088 18.6064 17.3859C18.5104 17.3343 18.2216 17.1806 17.9343 17.0309C17.7083 16.9131 17.5066 16.8101 17.3933 16.7551C17.211 17.0154 16.9122 17.3911 16.8247 17.5012L16.8246 17.5013C16.7226 17.6295 16.559 17.7745 16.3141 17.8057C16.0914 17.834 15.8998 17.7535 15.7692 17.6832C15.7481 17.6718 15.7151 17.6565 15.6717 17.6365C15.4113 17.5163 14.776 17.2229 14.0764 16.5485C13.4344 15.9322 13.0085 15.1817 12.887 14.9548C12.7772 14.7495 12.7422 14.523 12.8195 14.2997C12.8792 14.1273 12.9954 14.0034 13.0406 13.9553L13.0482 13.9471C13.0903 13.9018 13.1293 13.8503 13.1798 13.7837C13.2178 13.7335 13.2624 13.6747 13.3198 13.6034C13.3643 13.5479 13.3757 13.5226 13.4286 13.4048L13.4334 13.394C13.395 13.3081 13.3023 13.0631 13.2065 12.81L13.2065 12.8099L13.1658 12.7025C13.0406 12.372 12.904 12.0132 12.8207 11.8122ZM17.7782 19.2135C18.1371 19.1769 18.9418 18.7005 19.108 18.2038C19.2704 17.7071 19.2704 17.2837 19.2213 17.1941C19.1819 17.1222 19.0889 17.0739 18.9521 17.0029C18.9185 16.9854 18.8823 16.9666 18.8435 16.9458C18.6471 16.8399 17.68 16.3269 17.4986 16.2537C17.3173 16.1844 17.1851 16.1478 17.0566 16.3595C16.9244 16.5712 16.5466 17.0476 16.4333 17.1901C16.3199 17.3326 16.2028 17.3488 16.0064 17.243C15.9744 17.2258 15.9309 17.2054 15.8771 17.1803C15.6004 17.0511 15.053 16.7953 14.4234 16.1885C13.8378 15.6267 13.4412 14.9305 13.3278 14.7188C13.2145 14.5071 13.3165 14.3931 13.4147 14.2872C13.4703 14.2274 13.535 14.1426 13.6002 14.0573C13.637 14.0091 13.6739 13.9608 13.7094 13.9167C13.796 13.809 13.8327 13.7266 13.8842 13.6109L13.9059 13.5625C13.9701 13.42 13.9399 13.2979 13.8907 13.192C13.8683 13.1455 13.7758 12.9012 13.6653 12.6095L13.6652 12.6093C13.5337 12.2623 13.3769 11.8483 13.2825 11.6205C13.1352 11.2663 12.9803 11.2581 12.8405 11.2541C12.7272 11.25 12.5949 11.25 12.4627 11.25C12.3305 11.25 12.1189 11.3029 11.9376 11.5146C11.9268 11.5273 11.9148 11.5409 11.9019 11.5557C11.6977 11.7894 11.25 12.3017 11.25 13.2857C11.25 14.3142 11.938 15.3111 12.0505 15.474L12.0547 15.4801C12.0619 15.4905 12.0754 15.5121 12.0949 15.5434C12.3424 15.9393 13.565 17.8957 15.417 18.6842C16.9203 19.3249 17.3421 19.2696 17.6745 19.2261L17.6747 19.2261C17.7098 19.2215 17.7439 19.217 17.7782 19.2135Z" fill="white"/>
</svg>
