<svg width="30" height="30" viewBox="0 0 30 30" fill="none" xmlns="http://www.w3.org/2000/svg">
<path d="M15.7505 20.0564V20.3064H15.7641L15.7777 20.305L15.7505 20.0564ZM16.1682 19.8771L16.3496 20.0492L16.3497 20.0491L16.1682 19.8771ZM16.2932 19.4826L16.0433 19.4862L16.0433 19.4869L16.2932 19.4826ZM16.8457 18.1005L16.7713 17.8618L16.7712 17.8619L16.8457 18.1005ZM18.8929 19.7802L19.0326 19.5728L19.0325 19.5728L18.8929 19.7802ZM19.9094 20.0843L19.906 19.8344L19.8837 19.8347L19.8617 19.8389L19.9094 20.0843ZM21.9537 20.0564L21.9571 20.3067L21.9688 20.306L21.9537 20.0564ZM22.5158 19.1666L22.7289 19.0358L22.7283 19.0349L22.5158 19.1666ZM20.9963 17.4407L21.1647 17.2559L21.1646 17.2558L20.9963 17.4407ZM21.4297 14.4421L21.2311 14.2903L21.2311 14.2903L21.4297 14.4421ZM22.6281 12.1401L22.3931 12.2254L22.3933 12.226L22.6281 12.1401ZM21.8249 11.9145L21.8264 12.1645L21.8404 12.1645L21.8542 12.1628L21.8249 11.9145ZM19.5239 11.9285L19.4908 12.1763L19.5081 12.1786L19.5254 12.1785L19.5239 11.9285ZM19.2267 11.9799L19.1003 11.7643L19.0999 11.7645L19.2267 11.9799ZM19.0231 12.2224L18.7971 12.1157L18.793 12.1243L18.7896 12.1331L19.0231 12.2224ZM18.1736 13.9836L18.3879 14.1123L18.3879 14.1122L18.1736 13.9836ZM16.5717 15.6758L16.4377 15.8868L16.4383 15.8872L16.5717 15.6758ZM15.7812 11.6287L15.7233 11.8719L15.7236 11.872L15.7812 11.6287ZM14.7071 11.5237L14.7097 11.2737L14.7095 11.2737L14.7071 11.5237ZM12.7976 11.7154L12.9057 11.9408L12.9057 11.9408L12.7976 11.7154ZM12.457 12.1379L12.4245 12.3858L12.4246 12.3858L12.457 12.1379ZM13.1359 12.473L13.3361 12.3232L13.336 12.3231L13.1359 12.473ZM13.3635 13.495L13.1135 13.4921L13.1134 13.5022L13.1141 13.5124L13.3635 13.495ZM13.0468 15.6853L12.929 15.4649L12.9288 15.465L13.0468 15.6853ZM11.3978 13.9631L11.1825 14.09L11.1825 14.0901L11.3978 13.9631ZM10.5767 12.2922L10.8086 12.1988L10.8075 12.1962L10.5767 12.2922ZM10.3865 12.0402L10.533 11.8376L10.5329 11.8375L10.3865 12.0402ZM10.0332 11.9006L10.0729 11.6537L10.0524 11.6505L10.0316 11.6506L10.0332 11.9006ZM7.84675 11.9145L7.84516 11.6645L7.84005 11.6646L7.84675 11.9145ZM7.39763 12.0637L7.58699 12.2269L7.5873 12.2266L7.39763 12.0637ZM7.3894 12.4458L7.15571 12.5353L7.16018 12.5456L7.3894 12.4458ZM11.04 18.3591L10.8613 18.534L10.8613 18.534L11.04 18.3591ZM14.8358 20.0564V19.8064H14.8285L14.8211 19.8069L14.8358 20.0564ZM0.9021 15.3478C0.9021 7.56181 7.21391 1.25 14.9999 1.25V0.75C6.93777 0.75 0.4021 7.28567 0.4021 15.3478H0.9021ZM14.9999 1.25C22.7859 1.25 29.0978 7.56181 29.0978 15.3478H29.5978C29.5978 7.28567 23.0621 0.75 14.9999 0.75V1.25ZM29.0978 15.3478C29.0978 23.1338 22.7859 29.4457 14.9999 29.4457V29.9457C23.0621 29.9457 29.5978 23.41 29.5978 15.3478H29.0978ZM14.9999 29.4457C7.21391 29.4457 0.9021 23.1338 0.9021 15.3478H0.4021C0.4021 23.41 6.93777 29.9457 14.9999 29.9457V29.4457ZM15.7505 20.0564C15.7777 20.305 15.7777 20.3049 15.7778 20.3049C15.7778 20.3049 15.7779 20.3049 15.7779 20.3049C15.778 20.3049 15.7781 20.3049 15.7782 20.3049C15.7784 20.3049 15.7786 20.3049 15.7788 20.3048C15.7792 20.3048 15.7798 20.3047 15.7804 20.3046C15.7815 20.3045 15.783 20.3043 15.7847 20.3041C15.7881 20.3037 15.7925 20.3031 15.7979 20.3023C15.8087 20.3008 15.8234 20.2985 15.841 20.2953C15.876 20.2889 15.9243 20.2784 15.9786 20.2621C16.0795 20.2316 16.234 20.1711 16.3496 20.0492L15.9868 19.7051C15.961 19.7324 15.9067 19.7615 15.8341 19.7834C15.8016 19.7932 15.772 19.7996 15.7508 19.8035C15.7404 19.8054 15.7323 19.8066 15.7274 19.8073C15.725 19.8077 15.7234 19.8079 15.7227 19.808C15.7223 19.808 15.7222 19.808 15.7223 19.808C15.7224 19.808 15.7225 19.808 15.7227 19.808C15.7228 19.808 15.7229 19.808 15.723 19.8079C15.7231 19.8079 15.7232 19.8079 15.7232 19.8079C15.7233 19.8079 15.7233 19.8079 15.7233 19.8079C15.7234 19.8079 15.7234 19.8079 15.7505 20.0564ZM16.3497 20.0491C16.4645 19.928 16.5071 19.7714 16.5251 19.674C16.5349 19.621 16.5394 19.5741 16.5415 19.5402C16.5425 19.5231 16.543 19.5089 16.5431 19.4984C16.5432 19.4931 16.5433 19.4887 16.5433 19.4853C16.5433 19.4837 16.5432 19.4822 16.5432 19.481C16.5432 19.4804 16.5432 19.4799 16.5432 19.4794C16.5432 19.4792 16.5432 19.479 16.5432 19.4788C16.5432 19.4787 16.5432 19.4786 16.5432 19.4785C16.5432 19.4784 16.5432 19.4784 16.5432 19.4784C16.5432 19.4783 16.5432 19.4782 16.2932 19.4826C16.0433 19.4869 16.0433 19.4869 16.0433 19.4868C16.0433 19.4868 16.0433 19.4867 16.0433 19.4867C16.0433 19.4866 16.0433 19.4865 16.0433 19.4865C16.0433 19.4863 16.0433 19.4862 16.0433 19.4861C16.0433 19.4859 16.0433 19.4857 16.0433 19.4856C16.0433 19.4854 16.0433 19.4854 16.0433 19.4857C16.0433 19.4861 16.0433 19.4874 16.0432 19.4895C16.0431 19.4936 16.0429 19.5006 16.0424 19.5098C16.0412 19.5286 16.0387 19.5547 16.0335 19.5832C16.0213 19.6489 16.0015 19.6897 15.9868 19.7052L16.3497 20.0491ZM16.2932 19.4826C16.5432 19.479 16.5432 19.4791 16.5432 19.4791C16.5432 19.4791 16.5432 19.4792 16.5432 19.4792C16.5432 19.4792 16.5432 19.4792 16.5432 19.4793C16.5432 19.4793 16.5432 19.4792 16.5432 19.4791C16.5432 19.4788 16.5432 19.4783 16.5432 19.4775C16.5432 19.4758 16.5432 19.4731 16.5432 19.4694C16.5432 19.4619 16.5433 19.4504 16.5436 19.4353C16.5441 19.4051 16.5456 19.3611 16.549 19.3073C16.5558 19.1991 16.5703 19.0554 16.6006 18.9089C16.6314 18.7602 16.6759 18.6213 16.7363 18.5151C16.7966 18.4092 16.8594 18.3581 16.9201 18.3391L16.7712 17.8619C16.5471 17.9318 16.3985 18.0979 16.3018 18.2678C16.2052 18.4375 16.1472 18.633 16.111 18.8076C16.0744 18.9843 16.0577 19.1528 16.0499 19.2759C16.046 19.3379 16.0444 19.3893 16.0437 19.4257C16.0433 19.4439 16.0432 19.4584 16.0432 19.4686C16.0432 19.4738 16.0432 19.4778 16.0432 19.4808C16.0432 19.4823 16.0432 19.4834 16.0432 19.4843C16.0432 19.4848 16.0432 19.4852 16.0433 19.4855C16.0433 19.4856 16.0433 19.4858 16.0433 19.4859C16.0433 19.4859 16.0433 19.486 16.0433 19.486C16.0433 19.4861 16.0433 19.4862 16.2932 19.4826ZM16.92 18.3392C16.9496 18.33 17.0161 18.3285 17.1531 18.4227C17.2862 18.5142 17.4364 18.6626 17.6087 18.8505C17.7696 19.0261 17.9656 19.2544 18.1472 19.4472C18.3348 19.6463 18.5385 19.8429 18.7533 19.9875L19.0325 19.5728C18.8648 19.4599 18.6916 19.2959 18.5112 19.1044C18.325 18.9067 18.1623 18.7145 17.9772 18.5126C17.8035 18.3232 17.6204 18.1373 17.4365 18.0108C17.2565 17.8869 17.0224 17.7836 16.7713 17.8618L16.92 18.3392ZM18.7532 19.9875C19.0746 20.2041 19.3642 20.2929 19.5807 20.3255C19.6884 20.3417 19.777 20.3438 19.8413 20.3414C19.8735 20.3402 19.8997 20.3378 19.9191 20.3355C19.9289 20.3343 19.937 20.3332 19.9433 20.3322C19.9465 20.3317 19.9492 20.3312 19.9515 20.3308C19.9527 20.3306 19.9537 20.3304 19.9547 20.3302C19.9551 20.3301 19.9556 20.3301 19.956 20.33C19.9562 20.3299 19.9564 20.3299 19.9566 20.3299C19.9566 20.3298 19.9568 20.3298 19.9568 20.3298C19.957 20.3298 19.9571 20.3298 19.9094 20.0843C19.8617 19.8389 19.8619 19.8389 19.862 19.8389C19.862 19.8389 19.8622 19.8389 19.8622 19.8388C19.8624 19.8388 19.8626 19.8388 19.8627 19.8387C19.863 19.8387 19.8633 19.8386 19.8635 19.8386C19.864 19.8385 19.8644 19.8384 19.8647 19.8384C19.8654 19.8383 19.8656 19.8382 19.8654 19.8383C19.865 19.8383 19.8631 19.8386 19.8597 19.839C19.853 19.8398 19.8403 19.8411 19.8224 19.8418C19.7864 19.8431 19.7292 19.8422 19.6551 19.8311C19.5078 19.8089 19.2891 19.7456 19.0326 19.5728L18.7532 19.9875ZM19.9128 20.3343L21.9571 20.3064L21.9503 19.8064L19.906 19.8344L19.9128 20.3343ZM21.9537 20.0564C21.9688 20.306 21.9689 20.306 21.969 20.306C21.969 20.306 21.9691 20.3059 21.9692 20.3059C21.9694 20.3059 21.9695 20.3059 21.9697 20.3059C21.9701 20.3059 21.9706 20.3059 21.9711 20.3058C21.9722 20.3057 21.9735 20.3057 21.975 20.3055C21.9782 20.3053 21.9823 20.305 21.9874 20.3045C21.9975 20.3037 22.0114 20.3023 22.0283 20.3003C22.0621 20.2962 22.1089 20.2894 22.1631 20.2783C22.2682 20.2567 22.4158 20.2159 22.551 20.1367C22.6872 20.0571 22.8347 19.9235 22.885 19.7114C22.9349 19.501 22.8747 19.2732 22.7288 19.0358L22.3028 19.2975C22.4104 19.4726 22.4065 19.5624 22.3985 19.5961C22.3909 19.6282 22.3662 19.6656 22.2985 19.7052C22.2299 19.7453 22.142 19.7722 22.0625 19.7885C22.0244 19.7964 21.9916 19.8011 21.9689 19.8038C21.9576 19.8052 21.949 19.806 21.9437 19.8065C21.9411 19.8067 21.9393 19.8068 21.9384 19.8069C21.9379 19.8069 21.9377 19.8069 21.9378 19.8069C21.9378 19.8069 21.9378 19.8069 21.938 19.8069C21.938 19.8069 21.9381 19.8069 21.9382 19.8069C21.9383 19.8069 21.9384 19.8069 21.9384 19.8069C21.9385 19.8069 21.9386 19.8069 21.9537 20.0564ZM22.7283 19.0349C22.7291 19.0363 22.7285 19.0353 22.7234 19.0262C22.7194 19.019 22.7132 19.008 22.7061 18.9954C22.6914 18.9694 22.6714 18.9351 22.6446 18.8925C22.5911 18.8072 22.5123 18.6911 22.3963 18.5426C22.1645 18.246 21.785 17.8213 21.1647 17.2559L20.8279 17.6255C21.4314 18.1755 21.7908 18.5799 22.0023 18.8505C22.2129 19.12 22.2746 19.252 22.3034 19.2984L22.7283 19.0349ZM21.1646 17.2558C20.8358 16.9564 20.6264 16.7665 20.5025 16.6091C20.39 16.4661 20.3809 16.3917 20.3977 16.3137C20.4225 16.1989 20.5141 16.0375 20.7306 15.7485C20.9471 15.4594 21.2313 15.1135 21.6283 14.5939L21.2311 14.2903C20.8564 14.7806 20.5402 15.1686 20.3304 15.4487C20.1206 15.7288 19.9599 15.9719 19.909 16.2083C19.8501 16.4816 19.9419 16.7051 20.1095 16.9182C20.2658 17.1168 20.5157 17.3412 20.828 17.6255L21.1646 17.2558ZM21.6283 14.5939C22.1019 13.9744 22.4411 13.4657 22.6477 13.0649C22.7509 12.8647 22.8255 12.6831 22.8653 12.5224C22.9041 12.3657 22.9168 12.2016 22.8629 12.0542L22.3933 12.226C22.3981 12.2392 22.4079 12.2894 22.38 12.4022C22.353 12.511 22.2969 12.6543 22.2033 12.8357C22.0164 13.1981 21.6977 13.6799 21.2311 14.2903L21.6283 14.5939ZM22.8631 12.0548C22.8033 11.8903 22.6718 11.7975 22.5565 11.7466C22.4414 11.6958 22.3147 11.6735 22.2087 11.6633C22.1 11.6528 21.9978 11.6537 21.9241 11.6568C21.8868 11.6584 21.8558 11.6607 21.8336 11.6625C21.8225 11.6635 21.8136 11.6643 21.8072 11.665C21.804 11.6653 21.8014 11.6656 21.7995 11.6658C21.7985 11.6659 21.7977 11.666 21.797 11.6661C21.7967 11.6661 21.7964 11.6662 21.7962 11.6662C21.7961 11.6662 21.796 11.6662 21.7959 11.6662C21.7958 11.6662 21.7958 11.6662 21.7958 11.6663C21.7957 11.6663 21.7956 11.6663 21.8249 11.9145C21.8542 12.1628 21.8541 12.1628 21.8541 12.1628C21.8541 12.1628 21.854 12.1628 21.854 12.1628C21.854 12.1629 21.8539 12.1629 21.8539 12.1629C21.8538 12.1629 21.8538 12.1629 21.8538 12.1629C21.8538 12.1629 21.854 12.1628 21.8544 12.1628C21.855 12.1627 21.8563 12.1626 21.8582 12.1624C21.862 12.162 21.868 12.1614 21.8761 12.1607C21.8922 12.1594 21.9161 12.1576 21.9454 12.1564C22.0048 12.1538 22.0825 12.1535 22.1607 12.161C22.2415 12.1688 22.3086 12.1837 22.3546 12.204C22.4003 12.2242 22.3971 12.2364 22.3931 12.2254L22.8631 12.0548ZM21.8234 11.6645L19.5224 11.6785L19.5254 12.1785L21.8264 12.1645L21.8234 11.6645ZM19.5239 11.9285C19.557 11.6807 19.5569 11.6807 19.5569 11.6807C19.5568 11.6807 19.5568 11.6807 19.5567 11.6807C19.5566 11.6807 19.5565 11.6806 19.5564 11.6806C19.5563 11.6806 19.5561 11.6806 19.5558 11.6806C19.5554 11.6805 19.5549 11.6804 19.5544 11.6804C19.5534 11.6802 19.5522 11.6801 19.5508 11.6799C19.548 11.6796 19.5446 11.6792 19.5405 11.6788C19.5324 11.6781 19.5217 11.6772 19.5088 11.6765C19.4833 11.6751 19.4482 11.6744 19.4075 11.6769C19.3307 11.6816 19.2118 11.6989 19.1003 11.7643L19.3532 12.1956C19.3682 12.1868 19.3978 12.1784 19.4381 12.1759C19.4558 12.1748 19.4713 12.1752 19.4817 12.1757C19.4868 12.176 19.4904 12.1763 19.4921 12.1765C19.493 12.1766 19.4933 12.1766 19.4931 12.1766C19.493 12.1766 19.4928 12.1766 19.4924 12.1765C19.4922 12.1765 19.492 12.1765 19.4917 12.1764C19.4916 12.1764 19.4915 12.1764 19.4913 12.1764C19.4913 12.1764 19.4912 12.1764 19.4911 12.1763C19.4911 12.1763 19.491 12.1763 19.491 12.1763C19.4909 12.1763 19.4908 12.1763 19.5239 11.9285ZM19.0999 11.7645C18.9915 11.8284 18.9156 11.9243 18.8727 11.9867C18.8494 12.0205 18.8313 12.0512 18.8189 12.0737C18.8126 12.085 18.8076 12.0945 18.804 12.1017C18.8021 12.1053 18.8007 12.1083 18.7995 12.1106C18.7989 12.1118 18.7984 12.1128 18.798 12.1137C18.7978 12.1141 18.7976 12.1145 18.7975 12.1148C18.7974 12.115 18.7973 12.1152 18.7973 12.1153C18.7972 12.1154 18.7972 12.1155 18.7971 12.1155C18.7971 12.1156 18.7971 12.1156 18.7971 12.1156C18.7971 12.1157 18.7971 12.1157 19.0231 12.2224C19.2492 12.3291 19.2492 12.3291 19.2492 12.3292C19.2492 12.3292 19.2492 12.3293 19.2492 12.3293C19.2491 12.3293 19.2491 12.3294 19.2491 12.3294C19.249 12.3296 19.249 12.3297 19.2489 12.3297C19.2488 12.3299 19.2488 12.3301 19.2487 12.3302C19.2486 12.3304 19.2486 12.3304 19.2486 12.3303C19.2487 12.3302 19.2491 12.3295 19.2497 12.3283C19.2509 12.3258 19.2532 12.3215 19.2563 12.3158C19.2627 12.3042 19.2724 12.2879 19.2846 12.2702C19.3126 12.2295 19.3385 12.2042 19.3536 12.1954L19.0999 11.7645ZM19.0231 12.2224C18.7896 12.1331 18.7896 12.1331 18.7896 12.1331C18.7896 12.1331 18.7896 12.1331 18.7896 12.1331C18.7896 12.1331 18.7896 12.1331 18.7896 12.1332C18.7896 12.1332 18.7896 12.1333 18.7895 12.1335C18.7893 12.1339 18.7891 12.1345 18.7888 12.1353C18.7882 12.1369 18.7872 12.1394 18.7859 12.1428C18.7833 12.1495 18.7793 12.1597 18.774 12.1731C18.7635 12.1998 18.7478 12.2391 18.7274 12.289C18.6865 12.3888 18.6269 12.5306 18.5523 12.6973C18.4027 13.0318 18.1949 13.4621 17.9592 13.855L18.3879 14.1122C18.638 13.6954 18.855 13.2451 19.0087 12.9015C19.0858 12.7291 19.1476 12.5823 19.1901 12.4784C19.2114 12.4265 19.2279 12.3852 19.2391 12.3567C19.2447 12.3424 19.249 12.3314 19.252 12.3238C19.2535 12.32 19.2546 12.3171 19.2554 12.315C19.2558 12.314 19.2561 12.3132 19.2563 12.3127C19.2564 12.3124 19.2565 12.3122 19.2565 12.312C19.2566 12.3119 19.2566 12.3119 19.2566 12.3118C19.2566 12.3118 19.2566 12.3117 19.2566 12.3117C19.2567 12.3117 19.2567 12.3117 19.0231 12.2224ZM17.9592 13.855C17.4499 14.7037 17.1072 15.126 16.8854 15.3226C16.7747 15.4207 16.7104 15.4478 16.6857 15.4542C16.6719 15.4578 16.6863 15.4525 16.7051 15.4644L16.4383 15.8872C16.5409 15.952 16.6694 15.9751 16.8115 15.9381C16.9428 15.904 17.0763 15.8215 17.217 15.6968C17.4981 15.4478 17.8725 14.9712 18.3879 14.1123L17.9592 13.855ZM16.7057 15.4647C16.6187 15.4095 16.5519 15.2736 16.5282 14.9986C16.5049 14.7276 16.529 14.4471 16.529 14.1526H16.029C16.029 14.388 16.0045 14.7452 16.03 15.0415C16.0552 15.3336 16.1347 15.6945 16.4377 15.8868L16.7057 15.4647ZM16.529 14.1526C16.529 13.7448 16.5448 13.3966 16.557 13.0952C16.5691 12.7985 16.5785 12.5362 16.5621 12.3181C16.5457 12.1009 16.5021 11.8918 16.381 11.721C16.2539 11.5418 16.0673 11.4396 15.8389 11.3855L15.7236 11.872C15.8721 11.9072 15.9362 11.9581 15.9731 12.0102C16.016 12.0707 16.0496 12.1711 16.0635 12.3556C16.0773 12.5392 16.0698 12.771 16.0574 13.0748C16.0453 13.3739 16.029 13.7327 16.029 14.1526H16.529ZM15.8391 11.3855C15.5685 11.3211 15.3655 11.2804 14.7097 11.2737L14.7045 11.7736C15.3287 11.7801 15.494 11.8173 15.7233 11.8719L15.8391 11.3855ZM14.7095 11.2737C14.2992 11.2696 13.9103 11.2702 13.5726 11.2964C13.2396 11.3224 12.9294 11.3749 12.6895 11.49L12.9057 11.9408C13.0595 11.8671 13.2935 11.8197 13.6115 11.7949C13.9248 11.7705 14.2938 11.7696 14.7046 11.7736L14.7095 11.2737ZM12.6895 11.49C12.5211 11.5708 12.375 11.6982 12.2848 11.815C12.2438 11.8681 12.1922 11.9471 12.1755 12.0371C12.1668 12.0838 12.1614 12.1676 12.2121 12.2506C12.2681 12.3423 12.3575 12.377 12.4245 12.3858L12.4894 11.89C12.5256 11.8948 12.5943 11.9172 12.6388 11.99C12.6779 12.054 12.67 12.1123 12.6671 12.1284C12.6617 12.1573 12.6538 12.1552 12.6806 12.1205C12.7262 12.0615 12.8121 11.9857 12.9057 11.9408L12.6895 11.49ZM12.4246 12.3858C12.4884 12.3941 12.5905 12.4132 12.6927 12.4538C12.7963 12.4949 12.8821 12.551 12.9358 12.6228L13.336 12.3231C13.2071 12.1509 13.0294 12.0495 12.8772 11.989C12.7235 11.928 12.5775 11.9015 12.4894 11.89L12.4246 12.3858ZM12.9357 12.6227C13.0111 12.7235 13.063 12.9201 13.0901 13.1337C13.1027 13.2329 13.1086 13.3237 13.1113 13.3899C13.1126 13.4228 13.1132 13.4492 13.1134 13.467C13.1135 13.4759 13.1135 13.4826 13.1135 13.4869C13.1135 13.489 13.1135 13.4905 13.1135 13.4914C13.1135 13.4919 13.1135 13.4921 13.1135 13.4923C13.1135 13.4923 13.1135 13.4923 13.1135 13.4923C13.1135 13.4923 13.1135 13.4923 13.1135 13.4922C13.1135 13.4922 13.1135 13.4922 13.1135 13.4922C13.1135 13.4921 13.1135 13.4921 13.3635 13.495C13.6134 13.4979 13.6134 13.4979 13.6135 13.4978C13.6135 13.4978 13.6135 13.4978 13.6135 13.4977C13.6135 13.4977 13.6135 13.4976 13.6135 13.4975C13.6135 13.4973 13.6135 13.497 13.6135 13.4967C13.6135 13.4962 13.6135 13.4954 13.6135 13.4945C13.6135 13.4927 13.6135 13.4902 13.6135 13.4871C13.6135 13.4809 13.6135 13.4721 13.6133 13.4611C13.6131 13.439 13.6124 13.4077 13.6109 13.3694C13.6077 13.2932 13.6009 13.1876 13.5861 13.0707C13.5584 12.852 13.4965 12.5377 13.3361 12.3232L12.9357 12.6227ZM13.3635 13.495C13.1141 13.5124 13.1141 13.5123 13.1141 13.5123C13.1141 13.5123 13.1141 13.5123 13.1141 13.5123C13.1141 13.5123 13.1141 13.5124 13.1141 13.5125C13.1141 13.5126 13.1141 13.5129 13.1141 13.5133C13.1142 13.5141 13.1143 13.5153 13.1144 13.517C13.1146 13.5204 13.1149 13.5255 13.1153 13.5323C13.1162 13.5459 13.1174 13.5662 13.1187 13.5923C13.1215 13.6445 13.1249 13.7197 13.1277 13.8108C13.1332 13.9935 13.1359 14.2381 13.1249 14.4886C13.1139 14.7414 13.0893 14.9896 13.0437 15.184C13.0208 15.2813 12.9948 15.3555 12.9682 15.4069C12.9403 15.4608 12.9229 15.4681 12.929 15.4649L13.1647 15.9058C13.2838 15.8421 13.361 15.7357 13.4123 15.6368C13.4648 15.5353 13.5024 15.4176 13.5304 15.2983C13.5865 15.0593 13.6129 14.775 13.6245 14.5105C13.6361 14.2436 13.6332 13.9859 13.6275 13.7957C13.6246 13.7004 13.621 13.6214 13.6181 13.5661C13.6166 13.5384 13.6153 13.5166 13.6144 13.5016C13.6139 13.4941 13.6136 13.4883 13.6133 13.4842C13.6132 13.4822 13.6131 13.4807 13.613 13.4796C13.613 13.479 13.6129 13.4786 13.6129 13.4783C13.6129 13.4781 13.6129 13.478 13.6129 13.4779C13.6129 13.4778 13.6129 13.4778 13.6129 13.4778C13.6129 13.4777 13.6129 13.4777 13.3635 13.495ZM12.9288 15.465C12.9124 15.4738 12.8991 15.4781 12.8661 15.4671C12.8207 15.4519 12.7423 15.4067 12.6251 15.2902C12.3904 15.0571 12.0693 14.6095 11.6131 13.8361L11.1825 14.0901C11.6403 14.8663 11.9887 15.3628 12.2726 15.6449C12.4147 15.7861 12.5578 15.8913 12.7078 15.9413C12.8703 15.9956 13.0264 15.9799 13.1649 15.9057L12.9288 15.465ZM11.6132 13.8361C11.3851 13.4493 11.1837 13.0398 11.0388 12.7254C10.9666 12.5686 10.9087 12.4363 10.8691 12.3435C10.8493 12.2971 10.834 12.2606 10.8237 12.2358C10.8186 12.2234 10.8148 12.214 10.8122 12.2078C10.8109 12.2047 10.81 12.2023 10.8094 12.2008C10.8091 12.2001 10.8089 12.1995 10.8087 12.1992C10.8086 12.199 10.8086 12.1989 10.8086 12.1988C10.8086 12.1988 10.8086 12.1988 10.8086 12.1988C10.8086 12.1988 10.8086 12.1988 10.8086 12.1988C10.8086 12.1988 10.8086 12.1988 10.5767 12.2922C10.3448 12.3856 10.3448 12.3856 10.3448 12.3856C10.3448 12.3857 10.3448 12.3857 10.3448 12.3857C10.3448 12.3858 10.3449 12.3858 10.3449 12.3859C10.3449 12.386 10.345 12.3863 10.3451 12.3865C10.3453 12.387 10.3456 12.3877 10.346 12.3887C10.3468 12.3905 10.3479 12.3932 10.3493 12.3967C10.3521 12.4037 10.3563 12.4139 10.3618 12.4271C10.3727 12.4534 10.3887 12.4917 10.4093 12.5399C10.4505 12.6363 10.5102 12.773 10.5848 12.9347C10.7335 13.2574 10.9427 13.6833 11.1825 14.09L11.6132 13.8361ZM10.5767 12.2922C10.8075 12.1962 10.8075 12.1962 10.8075 12.1961C10.8075 12.1961 10.8074 12.1961 10.8074 12.196C10.8074 12.196 10.8074 12.1959 10.8073 12.1958C10.8073 12.1957 10.8072 12.1955 10.8071 12.1953C10.807 12.195 10.8068 12.1946 10.8066 12.1941C10.8063 12.1933 10.8058 12.1922 10.8053 12.1911C10.8043 12.1887 10.803 12.1857 10.8013 12.1821C10.7981 12.175 10.7937 12.1655 10.7881 12.1543C10.777 12.1319 10.7609 12.1014 10.7397 12.0674C10.6997 12.0029 10.6317 11.9089 10.533 11.8376L10.2401 12.2428C10.2633 12.2596 10.2904 12.2916 10.315 12.3311C10.3261 12.3491 10.3346 12.3651 10.3401 12.3762C10.3428 12.3817 10.3447 12.3857 10.3457 12.3879C10.3461 12.389 10.3464 12.3896 10.3464 12.3896C10.3465 12.3897 10.3464 12.3896 10.3463 12.3893C10.3463 12.3892 10.3462 12.3891 10.3461 12.3889C10.3461 12.3888 10.346 12.3887 10.346 12.3886C10.346 12.3885 10.3459 12.3884 10.3459 12.3884C10.3459 12.3883 10.3459 12.3883 10.3459 12.3883C10.3458 12.3882 10.3458 12.3882 10.5767 12.2922ZM10.5329 11.8375C10.4279 11.7616 10.3104 11.7169 10.2283 11.6916C10.1856 11.6784 10.1485 11.6692 10.1215 11.6633C10.108 11.6603 10.0968 11.6581 10.0885 11.6565C10.0844 11.6557 10.081 11.6551 10.0784 11.6547C10.0771 11.6544 10.0759 11.6543 10.075 11.6541C10.0746 11.654 10.0741 11.654 10.0738 11.6539C10.0736 11.6539 10.0734 11.6538 10.0733 11.6538C10.0732 11.6538 10.0731 11.6538 10.0731 11.6538C10.073 11.6538 10.073 11.6538 10.073 11.6538C10.0729 11.6538 10.0729 11.6537 10.0332 11.9006C9.99358 12.1474 9.99353 12.1474 9.99349 12.1474C9.99347 12.1474 9.99343 12.1474 9.9934 12.1474C9.99334 12.1474 9.99329 12.1474 9.99324 12.1474C9.99314 12.1473 9.99304 12.1473 9.99297 12.1473C9.99281 12.1473 9.9927 12.1473 9.99263 12.1473C9.9925 12.1472 9.99256 12.1473 9.99278 12.1473C9.99324 12.1474 9.99439 12.1476 9.99618 12.1479C9.99975 12.1486 10.0058 12.1498 10.0139 12.1515C10.0301 12.1551 10.0536 12.1609 10.0808 12.1693C10.1385 12.1871 10.1978 12.2122 10.2401 12.2428L10.5329 11.8375ZM10.0316 11.6506L7.84516 11.6645L7.84835 12.1645L10.0348 12.1506L10.0316 11.6506ZM7.84675 11.9145C7.84005 11.6646 7.84 11.6646 7.83994 11.6646C7.83992 11.6646 7.83987 11.6646 7.83983 11.6646C7.83975 11.6646 7.83967 11.6646 7.83958 11.6646C7.8394 11.6647 7.8392 11.6647 7.83899 11.6647C7.83855 11.6647 7.83803 11.6647 7.83743 11.6647C7.83624 11.6648 7.83472 11.6648 7.8329 11.6649C7.82926 11.665 7.8244 11.6653 7.81845 11.6656C7.80658 11.6663 7.79023 11.6674 7.77053 11.6692C7.73154 11.6728 7.67737 11.6794 7.61762 11.6915C7.55872 11.7035 7.48848 11.722 7.41978 11.7516C7.35302 11.7803 7.27215 11.8261 7.20797 11.9008L7.5873 12.2266C7.58338 12.2311 7.58877 12.2232 7.61752 12.2108C7.64433 12.1993 7.67884 12.1893 7.71715 12.1815C7.75461 12.1739 7.79013 12.1695 7.81652 12.1671C7.82951 12.1659 7.83978 12.1652 7.84635 12.1648C7.84962 12.1646 7.85193 12.1645 7.85317 12.1645C7.85379 12.1644 7.85413 12.1644 7.85418 12.1644C7.85421 12.1644 7.85417 12.1644 7.85405 12.1644C7.85399 12.1644 7.85391 12.1644 7.85381 12.1644C7.85376 12.1644 7.85371 12.1644 7.85365 12.1644C7.85362 12.1644 7.85357 12.1645 7.85356 12.1645C7.85351 12.1645 7.85346 12.1645 7.84675 11.9145ZM7.20828 11.9005C7.07831 12.0512 7.09317 12.2468 7.10584 12.3363C7.11362 12.3913 7.12572 12.4394 7.13557 12.4733C7.14057 12.4905 7.14521 12.5048 7.14879 12.5153C7.15059 12.5206 7.15214 12.5249 7.15335 12.5282C7.15396 12.5299 7.15449 12.5313 7.15492 12.5325C7.15514 12.5331 7.15533 12.5336 7.15551 12.5341C7.15559 12.5343 7.15567 12.5345 7.15574 12.5347C7.15578 12.5348 7.15582 12.5349 7.15585 12.535C7.15587 12.535 7.15589 12.5351 7.1559 12.5351C7.15592 12.5352 7.15595 12.5352 7.3894 12.4458C7.62285 12.3563 7.62287 12.3564 7.6229 12.3565C7.6229 12.3565 7.62292 12.3565 7.62294 12.3566C7.62297 12.3566 7.62299 12.3567 7.62302 12.3568C7.62307 12.3569 7.62311 12.357 7.62315 12.3571C7.62323 12.3573 7.62328 12.3575 7.62331 12.3576C7.62338 12.3577 7.62337 12.3577 7.62328 12.3575C7.6231 12.357 7.62263 12.3556 7.62193 12.3536C7.62053 12.3495 7.61828 12.3427 7.6157 12.3338C7.61036 12.3154 7.60445 12.2913 7.60091 12.2663C7.5972 12.2401 7.59729 12.2211 7.59881 12.2102C7.60033 12.1993 7.60121 12.2104 7.58699 12.2269L7.20828 11.9005ZM7.3894 12.4458C7.16018 12.5456 7.1602 12.5456 7.16023 12.5457C7.16024 12.5457 7.16027 12.5458 7.16031 12.5459C7.16037 12.546 7.16047 12.5462 7.16059 12.5465C7.16083 12.547 7.16117 12.5478 7.16161 12.5489C7.16251 12.5509 7.16381 12.5539 7.16552 12.5578C7.16895 12.5655 7.174 12.577 7.18064 12.5919C7.19392 12.6218 7.21353 12.6656 7.23913 12.722C7.29031 12.8347 7.36543 12.9974 7.46157 13.1988C7.6538 13.6014 7.9304 14.1588 8.26814 14.7789C8.94065 16.0136 9.8667 17.5173 10.8613 18.534L11.2187 18.1843C10.2746 17.2193 9.37536 15.7664 8.70723 14.5398C8.37467 13.9292 8.10212 13.3799 7.91278 12.9833C7.81814 12.7851 7.74436 12.6253 7.69436 12.5152C7.66936 12.4602 7.6503 12.4176 7.63756 12.3889C7.63118 12.3746 7.62639 12.3637 7.62322 12.3565C7.62163 12.3529 7.62045 12.3502 7.61968 12.3484C7.6193 12.3475 7.61901 12.3469 7.61884 12.3465C7.61875 12.3463 7.61868 12.3461 7.61865 12.3461C7.61863 12.346 7.61862 12.346 7.61861 12.346C7.61861 12.346 7.61861 12.346 7.3894 12.4458ZM10.8613 18.534C11.7867 19.4794 12.7774 19.9234 13.5391 20.1302C13.9195 20.2334 14.2429 20.2776 14.473 20.2959C14.5881 20.305 14.68 20.3077 14.7444 20.308C14.7766 20.3082 14.8019 20.3077 14.8198 20.3072C14.8287 20.307 14.8358 20.3067 14.8409 20.3065C14.8435 20.3064 14.8456 20.3063 14.8472 20.3062C14.848 20.3061 14.8487 20.3061 14.8493 20.3061C14.8495 20.3061 14.8498 20.306 14.85 20.306C14.8501 20.306 14.8502 20.306 14.8503 20.306C14.8504 20.306 14.8506 20.306 14.8358 20.0564C14.8211 19.8069 14.8212 19.8069 14.8213 19.8068C14.8213 19.8068 14.8214 19.8068 14.8215 19.8068C14.8216 19.8068 14.8216 19.8068 14.8217 19.8068C14.8217 19.8068 14.8217 19.8068 14.8215 19.8068C14.8212 19.8069 14.8203 19.8069 14.819 19.807C14.8165 19.8071 14.812 19.8072 14.8057 19.8074C14.7931 19.8078 14.7734 19.8081 14.7469 19.808C14.694 19.8077 14.6144 19.8055 14.5125 19.7974C14.3087 19.7812 14.0164 19.7416 13.6701 19.6476C12.9783 19.4598 12.0711 19.0552 11.2187 18.1843L10.8613 18.534ZM14.8358 20.3064H15.7505V19.8064H14.8358V20.3064Z" fill="white"/>
</svg>
