<svg width="21" height="19" viewBox="0 0 21 19" fill="none" xmlns="http://www.w3.org/2000/svg">
<path fill-rule="evenodd" clip-rule="evenodd" d="M8.27275 0C7.38888 0 6.67236 0.716517 6.67236 1.60039V7.7027H1.6707C0.786829 7.7027 0.0703125 8.41921 0.0703125 9.30308V18.1062C0.0703125 18.3823 0.29417 18.6062 0.570312 18.6062H7.17236H7.17262H13.7709C13.7722 18.6062 13.7735 18.6062 13.7749 18.6062H20.3772C20.6533 18.6062 20.8772 18.3823 20.8772 18.1062V6.00194C20.8772 5.11807 20.1607 4.40156 19.2768 4.40156H14.2747V1.60039C14.2747 0.716517 13.5582 0 12.6743 0H8.27275ZM7.67262 17.6062H13.2747V1.60039C13.2747 1.2688 13.0059 1 12.6743 1H8.27275C7.94116 1 7.67236 1.2688 7.67236 1.60039V8.18641C7.67254 8.19181 7.67262 8.19724 7.67262 8.2027V17.6062ZM6.67236 8.7027V17.6062H1.07031V9.30308C1.07031 8.9715 1.33911 8.7027 1.6707 8.7027H6.67236ZM14.2749 5.40156V17.6062H19.8772V6.00194C19.8772 5.67036 19.6084 5.40156 19.2768 5.40156H14.2749Z" fill="#5071D0"/>
</svg>
