<svg width="26" height="18" viewBox="0 0 26 18" fill="none" xmlns="http://www.w3.org/2000/svg">
<path fill-rule="evenodd" clip-rule="evenodd" d="M0.5 0C0.223858 0 0 0.223858 0 0.5C0 0.776142 0.223858 1 0.5 1H25.0893C25.3654 1 25.5893 0.776142 25.5893 0.5C25.5893 0.223858 25.3654 0 25.0893 0H0.5ZM0 8.69643C0 8.42029 0.223858 8.19643 0.5 8.19643H25.0893C25.3654 8.19643 25.5893 8.42029 25.5893 8.69643C25.5893 8.97257 25.3654 9.19643 25.0893 9.19643H0.5C0.223858 9.19643 0 8.97257 0 8.69643ZM0 16.8929C0 16.6167 0.223858 16.3929 0.5 16.3929H14.1607C14.4369 16.3929 14.6607 16.6167 14.6607 16.8929C14.6607 17.169 14.4369 17.3929 14.1607 17.3929H0.5C0.223858 17.3929 0 17.169 0 16.8929Z" fill="#5071D0"/>
</svg>
