<svg width="21" height="21" viewBox="0 0 21 21" fill="none" xmlns="http://www.w3.org/2000/svg">
<path fill-rule="evenodd" clip-rule="evenodd" d="M1 8.51282C1 4.3636 4.3636 1 8.51282 1C12.662 1 16.0256 4.3636 16.0256 8.51282C16.0256 12.662 12.662 16.0256 8.51282 16.0256C4.3636 16.0256 1 12.662 1 8.51282ZM8.51282 0C3.81132 0 0 3.81132 0 8.51282C0 13.2143 3.81132 17.0256 8.51282 17.0256C10.6837 17.0256 12.6647 16.2131 14.1684 14.8755L19.6062 20.3133C19.8014 20.5085 20.118 20.5085 20.3133 20.3133C20.5085 20.118 20.5085 19.8014 20.3133 19.6062L14.8755 14.1684C16.2131 12.6647 17.0256 10.6837 17.0256 8.51282C17.0256 3.81132 13.2143 0 8.51282 0Z" fill="white"/>
</svg>
