<svg width="20" height="20" viewBox="0 0 20 20" fill="none" xmlns="http://www.w3.org/2000/svg">
<path d="M19.1741 1.70094C19.5119 1.36316 19.5119 0.815505 19.1741 0.477724C18.8363 0.139943 18.2887 0.139943 17.9509 0.477724L10 8.4286L2.04912 0.477724C1.71134 0.139943 1.16369 0.139943 0.82591 0.477724C0.488129 0.815505 0.48813 1.36316 0.82591 1.70094L8.77679 9.65181L0.82591 17.6027C0.488129 17.9405 0.488129 18.4881 0.82591 18.8259C1.16369 19.1637 1.71134 19.1637 2.04912 18.8259L10 10.875L17.9509 18.8259C18.2887 19.1637 18.8363 19.1637 19.1741 18.8259C19.5119 18.4881 19.5119 17.9405 19.1741 17.6027L11.2232 9.65181L19.1741 1.70094Z" fill="#A8A8A8"/>
</svg>
