<svg width="16" height="14" viewBox="0 0 16 14" fill="none" xmlns="http://www.w3.org/2000/svg">
<path fill-rule="evenodd" clip-rule="evenodd" d="M6.02632 0C5.31416 0 4.73684 0.577317 4.73684 1.28947V5.52632H1.28947C0.577317 5.52632 0 6.10363 0 6.81579V13.1316C0 13.4077 0.223858 13.6316 0.5 13.6316H5.23586C5.23618 13.6316 5.23651 13.6316 5.23684 13.6316H9.97016C9.9713 13.6316 9.97244 13.6316 9.97358 13.6316H14.7104C14.9866 13.6316 15.2104 13.4077 15.2104 13.1316V4.44738C15.2104 3.73522 14.6331 3.15791 13.9209 3.15791H10.4737V1.28947C10.4737 0.577317 9.89637 0 9.18421 0H6.02632ZM10.4737 12.6316V4.15791H13.9209C14.0808 4.15791 14.2104 4.28751 14.2104 4.44738V12.6316H10.4737ZM9.47368 3.64747V1.28947C9.47368 1.1296 9.34408 1 9.18421 1H6.02632C5.86644 1 5.73684 1.1296 5.73684 1.28947V6.02632V12.6316H9.47358V3.65791C9.47358 3.65442 9.47361 3.65094 9.47368 3.64747ZM4.73684 12.6316V6.52632H1.28947C1.1296 6.52632 1 6.65592 1 6.81579V12.6316H4.73684Z" fill="#ffffff"/>
</svg>
